# xmcd
#
# Track frame offsets:
# 150
# 15388
# 32110
# 51098
# 69305
# 72013
# 93243
# 115306
# 138074
#
# Disc length: 2025 seconds
#
#
# Revision: 0
# Processed by: cddbd v1.5.1PL2 Copyright (c) Steve Scherf et al.
# Submitted via: FreeRIP 2.944 
#
DISCID=6b07e709
DTITLE=David Ingles - Covenant Father
DYEAR=1987
DGENRE=Gospel
TTITLE0=(We Have A) Covenant Father
TTITLE1=He Touched Her When She Touched Him
TTITLE2=Those That Be Planted
TTITLE3=Life Is Worth Living
TTITLE4=Testimony
TTITLE5=Go Tell John Again
TTITLE6=Praise The Lord
TTITLE7=I Worship You
TTITLE8=Let Us Go Possess
EXTD=
EXTT0=
EXTT1=
EXTT2=
EXTT3=
EXTT4=
EXTT5=
EXTT6=
EXTT7=
EXTT8=
PLAYORDER=
